<?xml version="1.0" encoding="UTF-8" standalone="no"?>
<svg width="48px" height="20px" viewBox="0 0 48 20" version="1.1" xmlns="http://www.w3.org/2000/svg" xmlns:xlink="http://www.w3.org/1999/xlink">
    <!-- Generator: Sketch 3.8.3 (29802) - http://www.bohemiancoding.com/sketch -->
    <title>logo</title>
    <desc>Created with Sketch.</desc>
    <defs></defs>
    <g id="Page-1" stroke="none" stroke-width="1" fill="none" fill-rule="evenodd">
        <g id="Artboard-1-Copy-2" transform="translate(-118.000000, -35.000000)" fill="#FFFFFF">
            <g id="nav" transform="translate(0.000000, 5.000000)">
                <g id="logo_header" transform="translate(118.000000, 30.000000)">
                    <g id="logo">
                        <path d="M22.1110847,19.7265424 L18.2124407,19.7265424 C17.4785424,19.7265424 16.8829492,19.1316271 16.8829492,18.3970508 C16.8829492,17.6624746 17.4785424,17.0675593 18.2124407,17.0675593 L22.1110847,17.0675593 C24.6680339,17.0675593 26.7480339,14.9875593 26.7480339,12.4309492 L26.7480339,1.70281356 C26.7480339,0.968237288 27.3436271,0.373322034 28.0775254,0.373322034 C28.8114237,0.373322034 29.4070169,0.968237288 29.4070169,1.70281356 L29.4070169,12.4309492 C29.4070169,16.453661 26.1341356,19.7265424 22.1110847,19.7265424" id="Fill-1"></path>
                        <path d="M6.00874576,17.0198983 C4.16162712,17.0198983 2.65891525,15.5168475 2.65891525,13.6697288 L2.65891525,6.38227119 C2.65891525,4.53515254 4.16162712,3.03210169 6.00874576,3.03210169 C7.85586441,3.03210169 9.35959322,4.53515254 9.35959322,6.38227119 L9.35959322,13.6697288 C9.35959322,15.5168475 7.85586441,17.0198983 6.00874576,17.0198983 M10.6890847,0.373118644 C10.0521356,0.373118644 9.52128814,0.82159322 9.39111864,1.41955932 C8.42671186,0.760237288 7.26230508,0.373118644 6.00874576,0.373118644 C2.69552542,0.373118644 -6.779661e-05,3.06905085 -6.779661e-05,6.38227119 L-6.779661e-05,13.6697288 C-6.779661e-05,16.9829492 2.69552542,19.6788814 6.00874576,19.6788814 C7.26230508,19.6788814 8.42671186,19.2921017 9.39111864,18.6327797 C9.52128814,19.2307458 10.0521356,19.6788814 10.6890847,19.6788814 C11.4229831,19.6788814 12.0185763,19.0839661 12.0185763,18.3493898 L12.0185763,13.6697288 L12.0185763,6.38227119 L12.0185763,1.70261017 C12.0185763,0.968372881 11.4229831,0.373118644 10.6890847,0.373118644" id="Fill-7"></path>
                        <path d="M41.5284746,17.0198983 C39.6813559,17.0198983 38.1786441,15.5168475 38.1786441,13.6697288 L38.1786441,6.38227119 C38.1786441,4.53515254 39.6813559,3.03210169 41.5284746,3.03210169 C43.3755932,3.03210169 44.8783051,4.53515254 44.8783051,6.38227119 L44.8783051,13.6697288 C44.8783051,15.5168475 43.3755932,17.0198983 41.5284746,17.0198983 M46.2077966,0.373118644 C45.5711864,0.373118644 45.040339,0.821254237 44.9101695,1.41922034 C43.9461017,0.759898305 42.7820339,0.373118644 41.5284746,0.373118644 C38.2152542,0.373118644 35.519661,3.06905085 35.519661,6.38227119 L35.519661,13.6697288 C35.519661,16.9829492 38.2152542,19.6788814 41.5284746,19.6788814 C42.7820339,19.6788814 43.9461017,19.2921017 44.9101695,18.6331186 C45.040339,19.2307458 45.5711864,19.6788814 46.2077966,19.6788814 C46.9416949,19.6788814 47.5372881,19.0839661 47.5372881,18.3493898 L47.5372881,13.6697288 L47.5372881,6.38227119 L47.5372881,1.70261017 C47.5372881,0.968372881 46.9416949,0.373118644 46.2077966,0.373118644" id="Fill-10"></path>
                    </g>
                </g>
            </g>
        </g>
    </g>
</svg>